<svg xmlns="http://www.w3.org/2000/svg" viewBox="0 0 5492 586.42"><defs><style>.cls-1{fill:#75b625;}</style></defs><title>Asset 1</title><g id="Layer_2" data-name="Layer 2"><g id="Layer_1-2" data-name="Layer 1"><text x="-41.1" y="-85.24"/><path d="M41.1,111c31.56-5.58,73.83-9.05,118.31-9.05,74,0,123.09,14.48,160.55,44.18,42.69,33.6,68.25,87.87,68.25,166.76,0,84.59-27.82,143.47-68.29,178.2-40.81,35-102.57,51.92-179.9,51.92-43.72,0-77.11-2.94-98.92-5.95Zm93.8,356c7.32,1.51,18.76,1.58,28.49,1.58,74.44.53,125.91-45.76,125.91-154.27.15-89.86-43.75-139.27-118.15-139.27-16.8,0-28.63,1.36-36.25,3.24Z" transform="translate(-41.1 -85.24)"/><path d="M519.09,412.35c2.35,43.2,39,62.17,82.18,62.17,30.4,0,55.6-4.65,78.72-12.56l12.55,64.5c-29.24,11.94-66.73,18.28-105.83,18.28-100.48,0-157.54-60.5-157.54-158.77,0-87.84,51.51-168.73,149-168.73,91.82,0,130.69,71.61,130.69,154.78,0,18.72-1.55,32.57-3.21,40.33Zm103-64.7c.2-28.64-10.39-66.35-49.12-66.35-37.2,0-52.29,38.57-54.39,66.35Z" transform="translate(-41.1 -85.24)"/><path d="M763.69,85.24h94V538.85h-94Z" transform="translate(-41.1 -85.24)"/><path d="M1217.57,378.78c0,120-78.88,166.57-152.32,166.57-86.75,0-150-60.25-150-162.15,0-105.06,64.78-166,154.42-166S1217.57,282.41,1217.57,378.78ZM1011,381.19c0,53.78,18.5,95.95,56.75,95.95,34.91,0,54-42.66,54-96.3,0-45.61-14.67-95.4-54.3-95.4C1025.5,285.44,1011,335.42,1011,381.19Z" transform="translate(-41.1 -85.24)"/><path d="M1370.16,137.53c.24,27.19-19.65,47.95-50.13,47.95-28.69,0-48.47-20.76-48.23-47.95-.24-28.11,20.17-48.18,49.18-48.18C1350.44,89.35,1369.89,109.35,1370.16,137.53Zm-96,401.32V223.74h94V538.85Z" transform="translate(-41.1 -85.24)"/><path d="M1547.29,135.39v88.35h67.86v68.54h-67.86V415.4c0,37.56,11.16,52.54,36.61,52.54a127.44,127.44,0,0,0,27-2.63l.75,71.88c-12.34,4.16-34.08,7.55-59.89,7.55-29.47,0-54.38-9.41-70-25.16-17.92-18-27-46.26-27-92.41V292.28h-40.44V223.74h40.44V156.93Z" transform="translate(-41.1 -85.24)"/><path d="M1772.61,135.39v88.35h67.85v68.54h-67.85V415.4c0,37.56,11.16,52.54,36.61,52.54a127.51,127.51,0,0,0,27-2.63l.75,71.88c-12.35,4.16-34.09,7.55-59.89,7.55-29.48,0-54.39-9.41-70-25.16-17.92-18-27-46.26-27-92.41V292.28h-40.43V223.74h40.43V156.93Z" transform="translate(-41.1 -85.24)"/><path d="M1961.76,412.35c2.35,43.2,39,62.17,82.19,62.17,30.4,0,55.6-4.65,78.71-12.56l12.56,64.5c-29.25,11.94-66.73,18.28-105.83,18.28-100.48,0-157.54-60.5-157.54-158.77,0-87.84,51.51-168.73,149-168.73,91.81,0,130.69,71.61,130.69,154.78,0,18.72-1.55,32.57-3.22,40.33Zm103-64.7c.2-28.64-10.4-66.35-49.12-66.35-37.2,0-52.29,38.57-54.4,66.35Z" transform="translate(-41.1 -85.24)"/><path d="M2576.25,111c25.71-5.2,72.06-9.05,117.44-9.05,53.9,0,91.59,5.71,122.75,26.23,28.21,17.2,46.06,46.62,46.06,83.6,0,38.27-21.64,74.61-68.71,93v1.84c49.74,13.42,83.5,52.31,83.5,105.51,0,38.58-16.26,68.71-41.12,90.08-30,26.35-79.93,40.79-162.19,40.79-43.46,0-76.55-2.8-97.73-5.95Zm93.26,167.87h27.71c45.57,0,71.47-22.79,71.47-56,0-32.62-22-52.17-63.35-52.17-17.81,0-28.57,1.19-35.83,2.92Zm0,192.14c8.22,1.5,18.2,1.7,32,1.7,41.5,0,77.35-18.41,77.35-63.58,0-43.49-36.13-62.4-80.4-62.47h-28.94Z" transform="translate(-41.1 -85.24)"/><path d="M2937.61,324.89c0-41.77-1-73.31-2.58-101.15h80.86l3.8,54.67h2.37c15.48-42.35,50-61.17,78.25-61.17,8.89,0,13.45.31,20.05,1.73v89.56a113.48,113.48,0,0,0-24.05-2.23c-30.46,0-54.92,17.07-62.29,48.25a114,114,0,0,0-2.37,24.71V538.85h-94Z" transform="translate(-41.1 -85.24)"/><path d="M3260.89,137.53c.24,27.19-19.65,47.95-50.13,47.95-28.68,0-48.46-20.76-48.22-47.95-.24-28.11,20.16-48.18,49.18-48.18C3241.17,89.35,3260.63,109.35,3260.89,137.53Zm-96,401.32V223.74h94V538.85Z" transform="translate(-41.1 -85.24)"/><path d="M3612.11,223.74c-1.53,22.92-2.81,51.48-2.81,95.69V496.11c0,62.75-12.31,108.48-45,138-31.12,27.58-73.86,37.5-120.09,37.5-37.87,0-76.42-7.47-102.91-21.39l18.3-71.42c18.59,10.14,48.74,20.47,82,20.47,45.15,0,75-25.77,75-81V498.46h-1.29c-16.2,24-44,37.82-76.51,37.82-75.57,0-122.72-67.38-122.72-153.11,0-102.59,60.1-165.93,131.75-165.93,37.74,0,62.92,17.19,77.79,42.51h1.29l3.61-36ZM3515.5,348.15a76.51,76.51,0,0,0-2.41-19.58c-5.89-22.21-21.63-38.15-45-38.15-34,0-57.54,35.12-57.54,90.54,0,50.46,21.21,85.09,57,85.09,21,0,38.38-13.41,44.75-34.56,2.42-7.34,3.19-17.31,3.19-25.57Z" transform="translate(-41.1 -85.24)"/><path d="M3681.23,85.24h94v175h1.29a106.27,106.27,0,0,1,35-30.77,101.7,101.7,0,0,1,48.47-12.18c61.11,0,101.4,45.15,101.4,135.64v186h-94V360.25c0-38.16-11.72-66.22-44.78-66.22-22.53,0-37.39,14.14-44.17,33.17-2.11,5.66-3.22,14.95-3.22,22.09V538.85h-94Z" transform="translate(-41.1 -85.24)"/><path d="M4136.53,135.39v88.35h67.86v68.54h-67.86V415.4c0,37.56,11.16,52.54,36.61,52.54a127.44,127.44,0,0,0,27-2.63l.75,71.88c-12.34,4.16-34.08,7.55-59.89,7.55-29.47,0-54.38-9.41-70-25.16-17.92-18-27-46.26-27-92.41V292.28h-40.44V223.74h40.44V156.93Z" transform="translate(-41.1 -85.24)"/><path d="M4259.66,442c23.42,12.77,61,24.18,97.54,24.18,43.48,0,66.16-19.3,66.16-47.86,0-27.95-20.38-43.71-67.77-63.57-68.46-28.89-108.32-70.14-108.32-126.33,0-72.69,57.35-129.38,156-129.38,43.28,0,76.33,9.27,98,20l-19.22,76.84a174.87,174.87,0,0,0-80-18.86c-40.77,0-60.24,20.4-60.24,42.82,0,27.1,20.76,39.75,74.14,63.05,71.05,30.47,102.22,71.57,102.22,128.16,0,74.63-56.4,133.72-165.4,133.72-44.94,0-89.48-12-110.76-24.11Z" transform="translate(-41.1 -85.24)"/><path d="M4679.87,135.39v88.35h67.85v68.54h-67.85V415.4c0,37.56,11.16,52.54,36.6,52.54a127.54,127.54,0,0,0,27.06-2.63l.75,71.88c-12.35,4.16-34.09,7.55-59.89,7.55-29.48,0-54.39-9.41-70-25.16-17.91-18-27-46.26-27-92.41V292.28H4547V223.74h40.44V156.93Z" transform="translate(-41.1 -85.24)"/><path d="M4966.76,538.85l-5.42-31.25h-1.89c-19.54,24.87-49.41,37.75-83.88,37.75-59.2,0-96.19-44.19-96.19-96.18,0-82.3,73.24-119.66,172.63-119.75V324.5c0-19.18-10.64-41.38-53.68-41.31-30,0-59.68,9.69-80,22l-17.23-60.92c20.58-11.8,61.6-27,115.1-27,102.13,0,130.07,63.53,130.07,134.49V463.81c0,28.55,1.43,56.25,4.9,75Zm-11.94-150.33c-44.44,0-84,11.51-84,50.92,0,27.1,16.86,39.2,36.35,39.2A48.13,48.13,0,0,0,4953,445.17c1.43-4.76,1.82-10.54,1.82-16Z" transform="translate(-41.1 -85.24)"/><path d="M5118.05,324.89c0-41.77-1-73.31-2.57-101.15h80.85l3.8,54.67h2.38c15.47-42.35,50-61.17,78.25-61.17,8.89,0,13.45.31,20,1.73v89.56a113.38,113.38,0,0,0-24-2.23c-30.46,0-54.93,17.07-62.29,48.25a113.94,113.94,0,0,0-2.38,24.71V538.85h-94Z" transform="translate(-41.1 -85.24)"/><path d="M5465.25,135.39v88.35h67.85v68.54h-67.85V415.4c0,37.56,11.16,52.54,36.6,52.54a127.54,127.54,0,0,0,27.06-2.63l.75,71.88c-12.35,4.16-34.09,7.55-59.89,7.55-29.48,0-54.39-9.41-70-25.16-17.91-18-27-46.26-27-92.41V292.28h-40.44V223.74h40.44V156.93Z" transform="translate(-41.1 -85.24)"/><circle class="cls-1" cx="2207.92" cy="389.26" r="64.5"/></g></g></svg>