<?xml version="1.0" encoding="utf-8"?>
<!-- Generator: Adobe Illustrator 24.0.1, SVG Export Plug-In . SVG Version: 6.00 Build 0)  -->
<svg version="1.1" id="Layer_1" xmlns="http://www.w3.org/2000/svg" xmlns:xlink="http://www.w3.org/1999/xlink" x="0px" y="0px"
	 viewBox="0 0 5492 586.4" style="enable-background:new 0 0 5492 586.4;" xml:space="preserve">
<style type="text/css">
	.st0{fill:#FFFFFF;}
	.st1{fill:#75B625;}
</style>
<title>Asset 1</title>
<g id="Layer_2_1_">
	<g id="Layer_1-2">
		<path class="st0" d="M0,25.8c31.6-5.6,73.8-9.1,118.3-9.1c74,0,123.1,14.5,160.6,44.2c42.7,33.6,68.3,87.9,68.3,166.8
			c0,84.6-27.8,143.5-68.3,178.2c-40.8,35-102.6,51.9-179.9,51.9c-43.7,0-77.1-2.9-98.9-6L0,25.8z M93.8,381.8
			c7.3,1.5,18.8,1.6,28.5,1.6c74.4,0.5,125.9-45.8,125.9-154.3c0.1-89.9-43.8-139.3-118.1-139.3c-16.8,0-28.6,1.4-36.2,3.2V381.8z"
			/>
		<path class="st0" d="M478,327.1c2.3,43.2,39,62.2,82.2,62.2c30.4,0,55.6-4.6,78.7-12.6l12.5,64.5c-29.2,11.9-66.7,18.3-105.8,18.3
			c-100.5,0-157.5-60.5-157.5-158.8c0-87.8,51.5-168.7,149-168.7c91.8,0,130.7,71.6,130.7,154.8c0,18.7-1.5,32.6-3.2,40.3L478,327.1
			z M581,262.4c0.2-28.6-10.4-66.4-49.1-66.4c-37.2,0-52.3,38.6-54.4,66.4H581z"/>
		<path class="st0" d="M722.6,0h94v453.6h-94V0z"/>
		<path class="st0" d="M1176.5,293.5c0,120-78.9,166.6-152.3,166.6c-86.8,0-150-60.3-150-162.1c0-105.1,64.8-166,154.4-166
			S1176.5,197.2,1176.5,293.5z M969.9,296c0,53.8,18.5,96,56.8,96c34.9,0,54-42.7,54-96.3c0-45.6-14.7-95.4-54.3-95.4
			C984.4,200.2,969.9,250.2,969.9,296z"/>
		<path class="st0" d="M1329.1,52.3c0.2,27.2-19.7,47.9-50.1,47.9c-28.7,0-48.5-20.8-48.2-47.9c-0.2-28.1,20.2-48.2,49.2-48.2
			C1309.3,4.1,1328.8,24.1,1329.1,52.3z M1233.1,453.6V138.5h94v315.1H1233.1z"/>
		<path class="st0" d="M1506.2,50.2v88.3h67.9V207h-67.9v123.1c0,37.6,11.2,52.5,36.6,52.5c9.1,0.1,18.1-0.8,27-2.6l0.8,71.9
			c-12.3,4.2-34.1,7.5-59.9,7.5c-29.5,0-54.4-9.4-70-25.2c-17.9-18-27-46.3-27-92.4V207h-40.4v-68.5h40.4V71.7L1506.2,50.2z"/>
		<path class="st0" d="M1731.5,50.2v88.3h67.8V207h-67.8v123.1c0,37.6,11.2,52.5,36.6,52.5c9.1,0.1,18.1-0.8,27-2.6l0.8,71.9
			c-12.3,4.2-34.1,7.5-59.9,7.5c-29.5,0-54.4-9.4-70-25.2c-17.9-18-27-46.3-27-92.4V207h-40.4v-68.5h40.4V71.7L1731.5,50.2z"/>
		<path class="st0" d="M1920.7,327.1c2.3,43.2,39,62.2,82.2,62.2c30.4,0,55.6-4.6,78.7-12.6l12.6,64.5
			c-29.3,11.9-66.7,18.3-105.8,18.3c-100.5,0-157.5-60.5-157.5-158.8c0-87.8,51.5-168.7,149-168.7c91.8,0,130.7,71.6,130.7,154.8
			c0,18.7-1.6,32.6-3.2,40.3L1920.7,327.1z M2023.7,262.4c0.2-28.6-10.4-66.4-49.1-66.4c-37.2,0-52.3,38.6-54.4,66.4H2023.7z"/>
		<path class="st0" d="M2535.1,25.8c25.7-5.2,72.1-9.1,117.4-9.1c53.9,0,91.6,5.7,122.8,26.2c28.2,17.2,46.1,46.6,46.1,83.6
			c0,38.3-21.6,74.6-68.7,93v1.8c49.7,13.4,83.5,52.3,83.5,105.5c0,38.6-16.3,68.7-41.1,90.1c-30,26.3-79.9,40.8-162.2,40.8
			c-43.5,0-76.6-2.8-97.7-6V25.8z M2628.4,193.6h27.7c45.6,0,71.5-22.8,71.5-56c0-32.6-22-52.2-63.4-52.2c-17.8,0-28.6,1.2-35.8,2.9
			L2628.4,193.6z M2628.4,385.8c8.2,1.5,18.2,1.7,32,1.7c41.5,0,77.4-18.4,77.4-63.6c0-43.5-36.1-62.4-80.4-62.5h-28.9L2628.4,385.8
			z"/>
		<path class="st0" d="M2896.5,239.7c0-41.8-1-73.3-2.6-101.1h80.9l3.8,54.7h2.4c15.5-42.4,50-61.2,78.3-61.2
			c8.9,0,13.4,0.3,20.1,1.7v89.6c-7.9-1.6-16-2.3-24.1-2.2c-30.5,0-54.9,17.1-62.3,48.3c-1.7,8.1-2.5,16.4-2.4,24.7v159.6h-94
			L2896.5,239.7z"/>
		<path class="st0" d="M3219.8,52.3c0.2,27.2-19.6,47.9-50.1,47.9c-28.7,0-48.5-20.8-48.2-47.9c-0.2-28.1,20.2-48.2,49.2-48.2
			C3200.1,4.1,3219.5,24.1,3219.8,52.3z M3123.8,453.6V138.5h94v315.1H3123.8z"/>
		<path class="st0" d="M3571,138.5c-1.5,22.9-2.8,51.5-2.8,95.7v176.7c0,62.8-12.3,108.5-45,138c-31.1,27.6-73.9,37.5-120.1,37.5
			c-37.9,0-76.4-7.5-102.9-21.4l18.3-71.4c18.6,10.1,48.7,20.5,82,20.5c45.1,0,75-25.8,75-81v-19.8h-1.3c-16.2,24-44,37.8-76.5,37.8
			c-75.6,0-122.7-67.4-122.7-153.1c0-102.6,60.1-165.9,131.8-165.9c37.7,0,62.9,17.2,77.8,42.5h1.3l3.6-36L3571,138.5z
			 M3474.4,262.9c0-6.6-0.8-13.2-2.4-19.6c-5.9-22.2-21.6-38.1-45-38.1c-34,0-57.5,35.1-57.5,90.5c0,50.5,21.2,85.1,57,85.1
			c21,0,38.4-13.4,44.8-34.6c2.4-7.3,3.2-17.3,3.2-25.6L3474.4,262.9z"/>
		<path class="st0" d="M3640.1,0h94v175h1.3c9.2-12.7,21.2-23.2,35-30.8c14.9-8,31.6-12.2,48.5-12.2c61.1,0,101.4,45.1,101.4,135.6
			v186h-94V275c0-38.2-11.7-66.2-44.8-66.2c-22.5,0-37.4,14.1-44.2,33.2c-2.1,5.7-3.2,15-3.2,22.1v189.6h-94L3640.1,0z"/>
		<path class="st0" d="M4095.4,50.2v88.3h67.9V207h-67.9v123.1c0,37.6,11.2,52.5,36.6,52.5c9.1,0.1,18.1-0.8,27-2.6l0.8,71.9
			c-12.3,4.2-34.1,7.5-59.9,7.5c-29.5,0-54.4-9.4-70-25.2c-17.9-18-27-46.3-27-92.4V207h-40.4v-68.5h40.4V71.7L4095.4,50.2z"/>
		<path class="st0" d="M4218.6,356.8c23.4,12.8,61,24.2,97.5,24.2c43.5,0,66.2-19.3,66.2-47.9c0-28-20.4-43.7-67.8-63.6
			c-68.5-28.9-108.3-70.1-108.3-126.3c0-72.7,57.4-129.4,156-129.4c43.3,0,76.3,9.3,98,20l-19.2,76.8c-24.8-12.6-52.2-19-80-18.9
			c-40.8,0-60.2,20.4-60.2,42.8c0,27.1,20.8,39.8,74.1,63c71,30.5,102.2,71.6,102.2,128.2c0,74.6-56.4,133.7-165.4,133.7
			c-44.9,0-89.5-12-110.8-24.1L4218.6,356.8z"/>
		<path class="st0" d="M4638.8,50.2v88.3h67.9V207h-67.9v123.1c0,37.6,11.2,52.5,36.6,52.5c9.1,0.1,18.2-0.8,27.1-2.6l0.8,71.9
			c-12.4,4.2-34.1,7.5-59.9,7.5c-29.5,0-54.4-9.4-70-25.2c-17.9-18-27-46.3-27-92.4V207h-40.4v-68.5h40.4V71.7L4638.8,50.2z"/>
		<path class="st0" d="M4925.7,453.6l-5.4-31.3h-1.9c-19.5,24.9-49.4,37.8-83.9,37.8c-59.2,0-96.2-44.2-96.2-96.2
			c0-82.3,73.2-119.7,172.6-119.8v-4.9c0-19.2-10.6-41.4-53.7-41.3c-30,0-59.7,9.7-80,22L4760,159c20.6-11.8,61.6-27,115.1-27
			c102.1,0,130.1,63.5,130.1,134.5v112c0,28.5,1.4,56.3,4.9,75L4925.7,453.6z M4913.7,303.3c-44.4,0-84,11.5-84,50.9
			c0,27.1,16.9,39.2,36.4,39.2c20.9,0,39.5-13.5,45.8-33.5c1.4-4.8,1.8-10.5,1.8-16V303.3z"/>
		<path class="st0" d="M5076.9,239.7c0-41.8-1-73.3-2.6-101.1h80.9l3.8,54.7h2.4c15.5-42.4,50-61.2,78.3-61.2c8.9,0,13.5,0.3,20,1.7
			v89.6c-7.9-1.6-15.9-2.3-24-2.2c-30.5,0-54.9,17.1-62.3,48.3c-1.7,8.1-2.5,16.4-2.4,24.7v159.6h-94L5076.9,239.7z"/>
		<path class="st0" d="M5424.1,50.2v88.3h67.9V207h-67.9v123.1c0,37.6,11.2,52.5,36.6,52.5c9.1,0.1,18.2-0.8,27.1-2.6l0.8,71.9
			c-12.4,4.2-34.1,7.5-59.9,7.5c-29.5,0-54.4-9.4-70-25.2c-17.9-18-27-46.3-27-92.4V207h-40.4v-68.5h40.4V71.7L5424.1,50.2z"/>
		<circle class="st1" cx="2207.9" cy="389.3" r="64.5"/>
	</g>
</g>
</svg>
